<mxfile host="app.diagrams.net" agent="Mozilla/5.0 (Windows NT 10.0; Win64; x64) AppleWebKit/537.36 (KHTML, like Gecko) Chrome/134.0.0.0 Safari/537.36" version="26.2.6">
  <diagram name="Page-1" id="MqcjQ8bF29-GzMRrWZ5c">
    <mxGraphModel dx="1283" dy="658" grid="1" gridSize="10" guides="1" tooltips="1" connect="1" arrows="1" fold="1" page="1" pageScale="1" pageWidth="850" pageHeight="1100" math="0" shadow="0">
      <root>
        <mxCell id="0" />
        <mxCell id="1" parent="0" />
        <mxCell id="nP-QxEN4EDxJ7VIRZUXM-8" style="edgeStyle=orthogonalEdgeStyle;rounded=0;orthogonalLoop=1;jettySize=auto;html=1;exitX=1;exitY=0.5;exitDx=0;exitDy=0;exitPerimeter=0;" edge="1" parent="1" source="nP-QxEN4EDxJ7VIRZUXM-2" target="nP-QxEN4EDxJ7VIRZUXM-6">
          <mxGeometry relative="1" as="geometry" />
        </mxCell>
        <mxCell id="nP-QxEN4EDxJ7VIRZUXM-2" value="" style="sketch=0;points=[[0,0,0],[0.25,0,0],[0.5,0,0],[0.75,0,0],[1,0,0],[0,1,0],[0.25,1,0],[0.5,1,0],[0.75,1,0],[1,1,0],[0,0.25,0],[0,0.5,0],[0,0.75,0],[1,0.25,0],[1,0.5,0],[1,0.75,0]];outlineConnect=0;fontColor=#232F3E;fillColor=#7AA116;strokeColor=#ffffff;dashed=0;verticalLabelPosition=bottom;verticalAlign=top;align=center;html=1;fontSize=12;fontStyle=0;aspect=fixed;shape=mxgraph.aws4.resourceIcon;resIcon=mxgraph.aws4.s3;" vertex="1" parent="1">
          <mxGeometry x="40" y="80" width="78" height="78" as="geometry" />
        </mxCell>
        <mxCell id="nP-QxEN4EDxJ7VIRZUXM-3" value="&lt;b&gt;S3 Bucket -&amp;nbsp;&lt;/b&gt;&lt;div&gt;&lt;b&gt;SDN List&lt;br&gt;(all files in csv)&lt;/b&gt;&lt;/div&gt;" style="text;html=1;align=center;verticalAlign=middle;resizable=0;points=[];autosize=1;strokeColor=none;fillColor=none;" vertex="1" parent="1">
          <mxGeometry x="24" y="160" width="110" height="60" as="geometry" />
        </mxCell>
        <mxCell id="nP-QxEN4EDxJ7VIRZUXM-6" value="" style="html=1;verticalLabelPosition=bottom;align=center;labelBackgroundColor=#ffffff;verticalAlign=top;strokeWidth=2;strokeColor=#0080F0;shadow=0;dashed=0;shape=mxgraph.ios7.icons.folders;" vertex="1" parent="1">
          <mxGeometry x="190" y="96.25" width="50" height="43.75" as="geometry" />
        </mxCell>
        <mxCell id="nP-QxEN4EDxJ7VIRZUXM-7" value="&lt;b&gt;Metadata information&lt;/b&gt;&lt;div&gt;&lt;b&gt;&amp;nbsp;of the SDN List&amp;nbsp;&lt;/b&gt;&lt;/div&gt;" style="text;html=1;align=center;verticalAlign=middle;resizable=0;points=[];autosize=1;strokeColor=none;fillColor=none;" vertex="1" parent="1">
          <mxGeometry x="150" y="150" width="140" height="40" as="geometry" />
        </mxCell>
        <mxCell id="nP-QxEN4EDxJ7VIRZUXM-12" style="edgeStyle=orthogonalEdgeStyle;rounded=0;orthogonalLoop=1;jettySize=auto;html=1;entryX=0.5;entryY=0;entryDx=0;entryDy=0;entryPerimeter=0;" edge="1" parent="1" source="nP-QxEN4EDxJ7VIRZUXM-7">
          <mxGeometry relative="1" as="geometry">
            <mxPoint x="220" y="270" as="targetPoint" />
          </mxGeometry>
        </mxCell>
        <mxCell id="nP-QxEN4EDxJ7VIRZUXM-14" value="" style="sketch=0;points=[[0,0,0],[0.25,0,0],[0.5,0,0],[0.75,0,0],[1,0,0],[0,1,0],[0.25,1,0],[0.5,1,0],[0.75,1,0],[1,1,0],[0,0.25,0],[0,0.5,0],[0,0.75,0],[1,0.25,0],[1,0.5,0],[1,0.75,0]];outlineConnect=0;fontColor=#232F3E;fillColor=#01A88D;strokeColor=#ffffff;dashed=0;verticalLabelPosition=bottom;verticalAlign=top;align=center;html=1;fontSize=12;fontStyle=0;aspect=fixed;shape=mxgraph.aws4.resourceIcon;resIcon=mxgraph.aws4.bedrock;" vertex="1" parent="1">
          <mxGeometry x="181" y="270" width="78" height="78" as="geometry" />
        </mxCell>
        <mxCell id="nP-QxEN4EDxJ7VIRZUXM-15" style="edgeStyle=orthogonalEdgeStyle;rounded=0;orthogonalLoop=1;jettySize=auto;html=1;entryX=0;entryY=0.75;entryDx=0;entryDy=0;entryPerimeter=0;" edge="1" parent="1" source="nP-QxEN4EDxJ7VIRZUXM-3" target="nP-QxEN4EDxJ7VIRZUXM-14">
          <mxGeometry relative="1" as="geometry" />
        </mxCell>
        <mxCell id="nP-QxEN4EDxJ7VIRZUXM-16" value="&lt;b&gt;Data Load Operation&amp;nbsp;&lt;/b&gt;&lt;div&gt;&lt;b&gt;in Bedrock&lt;/b&gt;&lt;/div&gt;" style="text;html=1;align=center;verticalAlign=middle;resizable=0;points=[];autosize=1;strokeColor=none;fillColor=none;" vertex="1" parent="1">
          <mxGeometry x="150" y="350" width="140" height="40" as="geometry" />
        </mxCell>
        <mxCell id="nP-QxEN4EDxJ7VIRZUXM-17" value="" style="sketch=0;outlineConnect=0;fontColor=#232F3E;gradientColor=none;fillColor=#8C4FFF;strokeColor=none;dashed=0;verticalLabelPosition=bottom;verticalAlign=top;align=center;html=1;fontSize=12;fontStyle=0;aspect=fixed;pointerEvents=1;shape=mxgraph.aws4.opensearch_observability;" vertex="1" parent="1">
          <mxGeometry x="360" y="272" width="78" height="78" as="geometry" />
        </mxCell>
        <mxCell id="nP-QxEN4EDxJ7VIRZUXM-18" style="edgeStyle=orthogonalEdgeStyle;rounded=0;orthogonalLoop=1;jettySize=auto;html=1;exitX=1;exitY=0.5;exitDx=0;exitDy=0;exitPerimeter=0;entryX=-0.003;entryY=0.464;entryDx=0;entryDy=0;entryPerimeter=0;" edge="1" parent="1" source="nP-QxEN4EDxJ7VIRZUXM-14" target="nP-QxEN4EDxJ7VIRZUXM-17">
          <mxGeometry relative="1" as="geometry" />
        </mxCell>
        <mxCell id="nP-QxEN4EDxJ7VIRZUXM-19" value="&lt;b&gt;OpenSearch&lt;/b&gt;&lt;div&gt;&lt;b&gt;Stores Vector Data&lt;/b&gt;&lt;/div&gt;" style="text;html=1;align=center;verticalAlign=middle;resizable=0;points=[];autosize=1;strokeColor=none;fillColor=none;" vertex="1" parent="1">
          <mxGeometry x="334" y="350" width="130" height="40" as="geometry" />
        </mxCell>
      </root>
    </mxGraphModel>
  </diagram>
</mxfile>
